{
  "accessors": {
    "accessor_index_0": {
      "bufferView": "bufferView_1",
      "byteOffset": 0,
      "byteStride": 0,
      "componentType": 5123,
      "count": 36,
      "type": "SCALAR",
      "min": [
        0
      ],
      "max": [
        7
      ]
    },
    "accessor_index_1": {
      "bufferView": "bufferView_1",
      "byteOffset": 72,
      "byteStride": 0,
      "componentType": 5123,
      "count": 273,
      "type": "SCALAR",
      "min": [
        8
      ],
      "max": [
        62
      ]
    },
    "accessor_index_2": {
      "bufferView": "bufferView_1",
      "byteOffset": 618,
      "byteStride": 0,
      "componentType": 5123,
      "count": 918,
      "type": "SCALAR",
      "min": [
        63
      ],
      "max": [
        592
      ]
    },
    "accessor_index_3": {
      "bufferView": "bufferView_1",
      "byteOffset": 2454,
      "byteStride": 0,
      "componentType": 5123,
      "count": 21636,
      "type": "SCALAR",
      "min": [
        593
      ],
      "max": [
        6572
      ]
    },
    "accessor_index_4": {
      "bufferView": "bufferView_1",
      "byteOffset": 45726,
      "byteStride": 0,
      "componentType": 5123,
      "count": 84,
      "type": "SCALAR",
      "min": [
        6573
      ],
      "max": [
        6604
      ]
    },
    "accessor_index_5": {
      "bufferView": "bufferView_1",
      "byteOffset": 45894,
      "byteStride": 0,
      "componentType": 5123,
      "count": 2763,
      "type": "SCALAR",
      "min": [
        6605
      ],
      "max": [
        7321
      ]
    },
    "accessor_index_6": {
      "bufferView": "bufferView_1",
      "byteOffset": 51420,
      "byteStride": 0,
      "componentType": 5123,
      "count": 174,
      "type": "SCALAR",
      "min": [
        7322
      ],
      "max": [
        7355
      ]
    },
    "accessor_index_7": {
      "bufferView": "bufferView_1",
      "byteOffset": 51768,
      "byteStride": 0,
      "componentType": 5123,
      "count": 15552,
      "type": "SCALAR",
      "min": [
        7356
      ],
      "max": [
        14267
      ]
    },
    "accessor_position": {
      "bufferView": "bufferView_0",
      "byteOffset": 0,
      "byteStride": 0,
      "componentType": 5126,
      "count": 14204,
      "min": [
        -5.900177955627441,
        -1.1090689897537231,
        -0.9343929886817932
      ],
      "max": [
        5.900177955627441,
        1.1090689897537231,
        1.0278040170669556
      ],
      "type": "VEC3"
    },
    "accessor_normal": {
      "bufferView": "bufferView_0",
      "byteOffset": 170448,
      "byteStride": 0,
      "componentType": 5126,
      "count": 14204,
      "type": "VEC3",
      "min": [
        -1,
        -1,
        -1
      ],
      "max": [
        1,
        1,
        1
      ]
    },
    "accessor_uv": {
      "bufferView": "bufferView_0",
      "byteOffset": 340896,
      "byteStride": 0,
      "componentType": 5126,
      "count": 14204,
      "type": "VEC2",
      "min": [
        0,
        0
      ],
      "max": [
        1,
        1
      ]
    }
  },
  "asset": {
    "generator": "OBJ2GLTF",
    "premultipliedAlpha": true,
    "profile": {
      "api": "WebGL",
      "version": "1.0"
    },
    "version": "1.0"
  },
  "buffers": {
    "1_11_buffer": {
      "type": "arraybuffer",
      "byteLength": 537400,
      "uri": "data:application/octet-stream;base64,"
    }
  },
  "bufferViews": {
    "bufferView_0": {
      "buffer": "1_11_buffer",
      "byteLength": 454528,
      "byteOffset": 0,
      "target": 34962
    },
    "bufferView_1": {
      "buffer": "1_11_buffer",
      "byteLength": 82872,
      "byteOffset": 454528,
      "target": 34963
    }
  },
  "images": {
    "foil_n": {
      "uri": "data:image/png;base64,"
    }
  },
  "materials": {
    "material_None": {
      "name": "None",
      "extensions": {},
      "values": {
        "ambient": [
          0,
          0,
          0,
          1
        ],
        "diffuse": [
          0.8,
          0.8,
          0.8,
          1
        ],
        "emission": [
          0,
          0,
          0,
          1
        ],
        "specular": [
          0.8,
          0.8,
          0.8,
          1
        ],
        "shininess": 0,
        "transparency": 1
      },
      "technique": "technique0"
    },
    "material_black_krinkle": {
      "name": "black_krinkle",
      "extensions": {},
      "values": {
        "ambient": [
          1,
          1,
          1,
          1
        ],
        "diffuse": "texture_foil_n",
        "emission": [
          0,
          0,
          0,
          1
        ],
        "specular": [
          0.192187,
          0.192187,
          0.192187,
          1
        ],
        "shininess": 100,
        "transparency": 1
      },
      "technique": "technique1"
    },
    "material_foil_gold": {
      "name": "foil_gold",
      "extensions": {},
      "values": {
        "ambient": [
          1,
          1,
          1,
          1
        ],
        "diffuse": "texture_foil_n",
        "emission": [
          0,
          0,
          0,
          1
        ],
        "specular": [
          0.866667,
          0.85098,
          0.658824,
          1
        ],
        "shininess": 96.078431,
        "transparency": 1
      },
      "technique": "technique1"
    },
    "material_foil_gold_NONE": {
      "name": "foil_gold_NONE",
      "extensions": {},
      "values": {
        "ambient": [
          1,
          1,
          1,
          1
        ],
        "diffuse": [
          0.557647,
          0.412941,
          0.056471,
          1
        ],
        "emission": [
          0,
          0,
          0,
          1
        ],
        "specular": [
          0.866667,
          0.85098,
          0.658824,
          1
        ],
        "shininess": 96.078431,
        "transparency": 1
      },
      "technique": "technique0"
    },
    "material_foil_silver": {
      "name": "foil_silver",
      "extensions": {},
      "values": {
        "ambient": [
          1,
          1,
          1,
          1
        ],
        "diffuse": "texture_foil_n",
        "emission": [
          0,
          0,
          0,
          1
        ],
        "specular": [
          1,
          1,
          1,
          1
        ],
        "shininess": 96.078431,
        "transparency": 1
      },
      "technique": "technique1"
    },
    "material_foil_silver_NONE": {
      "name": "foil_silver_NONE",
      "extensions": {},
      "values": {
        "ambient": [
          1,
          1,
          1,
          1
        ],
        "diffuse": [
          0.578934,
          0.578934,
          0.578934,
          1
        ],
        "emission": [
          0,
          0,
          0,
          1
        ],
        "specular": [
          1,
          1,
          1,
          1
        ],
        "shininess": 96.078431,
        "transparency": 1
      },
      "technique": "technique0"
    },
    "material_shiny_panel": {
      "name": "shiny_panel",
      "extensions": {},
      "values": {
        "ambient": [
          1,
          1,
          1,
          1
        ],
        "diffuse": [
          0.64,
          0.64,
          0.64,
          1
        ],
        "emission": [
          0,
          0,
          0,
          1
        ],
        "specular": [
          0.5,
          0.5,
          0.5,
          1
        ],
        "shininess": 96.078431,
        "transparency": 1
      },
      "technique": "technique0"
    },
    "material_czmDefaultMat": {
      "name": "czmDefaultMat",
      "extensions": {},
      "values": {
        "ambient": [
          0,
          0,
          0,
          1
        ],
        "diffuse": [
          0.5,
          0.5,
          0.5,
          1
        ],
        "emission": [
          0,
          0,
          0,
          1
        ],
        "specular": [
          0,
          0,
          0,
          1
        ],
        "shininess": 0,
        "transparency": 1
      },
      "technique": "technique0"
    }
  },
  "meshes": {
    "mesh_1_11": {
      "name": "1_11",
      "primitives": [
        {
          "attributes": {
            "POSITION": "accessor_position",
            "NORMAL": "accessor_normal",
            "TEXCOORD_0": "accessor_uv"
          },
          "indices": "accessor_index_0",
          "material": "material_None",
          "mode": 4
        },
        {
          "attributes": {
            "POSITION": "accessor_position",
            "NORMAL": "accessor_normal",
            "TEXCOORD_0": "accessor_uv"
          },
          "indices": "accessor_index_1",
          "material": "material_foil_silver",
          "mode": 4
        },
        {
          "attributes": {
            "POSITION": "accessor_position",
            "NORMAL": "accessor_normal",
            "TEXCOORD_0": "accessor_uv"
          },
          "indices": "accessor_index_2",
          "material": "material_foil_silver_NONE",
          "mode": 4
        },
        {
          "attributes": {
            "POSITION": "accessor_position",
            "NORMAL": "accessor_normal",
            "TEXCOORD_0": "accessor_uv"
          },
          "indices": "accessor_index_3",
          "material": "material_czmDefaultMat",
          "mode": 4
        },
        {
          "attributes": {
            "POSITION": "accessor_position",
            "NORMAL": "accessor_normal",
            "TEXCOORD_0": "accessor_uv"
          },
          "indices": "accessor_index_4",
          "material": "material_black_krinkle",
          "mode": 4
        },
        {
          "attributes": {
            "POSITION": "accessor_position",
            "NORMAL": "accessor_normal",
            "TEXCOORD_0": "accessor_uv"
          },
          "indices": "accessor_index_5",
          "material": "material_foil_gold",
          "mode": 4
        },
        {
          "attributes": {
            "POSITION": "accessor_position",
            "NORMAL": "accessor_normal",
            "TEXCOORD_0": "accessor_uv"
          },
          "indices": "accessor_index_6",
          "material": "material_foil_gold_NONE",
          "mode": 4
        },
        {
          "attributes": {
            "POSITION": "accessor_position",
            "NORMAL": "accessor_normal",
            "TEXCOORD_0": "accessor_uv"
          },
          "indices": "accessor_index_7",
          "material": "material_shiny_panel",
          "mode": 4
        }
      ]
    }
  },
  "nodes": {
    "rootNode": {
      "children": [],
      "meshes": [
        "mesh_1_11"
      ],
      "matrix": [
        1,
        0,
        0,
        0,
        0,
        1,
        0,
        0,
        0,
        0,
        1,
        0,
        0,
        0,
        0,
        1
      ]
    }
  },
  "samplers": {
    "sampler_0": {
      "magFilter": 9729,
      "minFilter": 9986,
      "wrapS": 10497,
      "wrapT": 10497
    }
  },
  "scene": "scene_1_11",
  "scenes": {
    "scene_1_11": {
      "nodes": [
        "rootNode"
      ]
    }
  },
  "textures": {
    "texture_foil_n": {
      "format": 6407,
      "internalFormat": 6407,
      "sampler": "sampler_0",
      "source": "foil_n",
      "target": 3553,
      "type": 5121
    }
  },
  "extensionsUsed": [],
  "animations": {},
  "cameras": {},
  "techniques": {
    "technique0": {
      "attributes": {
        "a_position": "position",
        "a_normal": "normal",
        "a_texcoord_0": "texcoord_0"
      },
      "parameters": {
        "modelViewMatrix": {
          "semantic": "MODELVIEW",
          "type": 35676
        },
        "projectionMatrix": {
          "semantic": "PROJECTION",
          "type": 35676
        },
        "normalMatrix": {
          "semantic": "MODELVIEWINVERSETRANSPOSE",
          "type": 35675
        },
        "ambient": {
          "type": 35666
        },
        "diffuse": {
          "type": 35666
        },
        "emission": {
          "type": 35666
        },
        "specular": {
          "type": 35666
        },
        "shininess": {
          "type": 5126
        },
        "transparency": {
          "type": 5126
        },
        "position": {
          "semantic": "POSITION",
          "type": 35665
        },
        "normal": {
          "semantic": "NORMAL",
          "type": 35665
        },
        "texcoord_0": {
          "semantic": "TEXCOORD_0",
          "type": 5126
        }
      },
      "program": "program0",
      "states": {
        "enable": [
          2884,
          2929
        ]
      },
      "uniforms": {
        "u_modelViewMatrix": "modelViewMatrix",
        "u_projectionMatrix": "projectionMatrix",
        "u_normalMatrix": "normalMatrix",
        "u_ambient": "ambient",
        "u_diffuse": "diffuse",
        "u_emission": "emission",
        "u_specular": "specular",
        "u_shininess": "shininess",
        "u_transparency": "transparency"
      }
    },
    "technique1": {
      "attributes": {
        "a_position": "position",
        "a_normal": "normal",
        "a_texcoord_0": "texcoord_0"
      },
      "parameters": {
        "modelViewMatrix": {
          "semantic": "MODELVIEW",
          "type": 35676
        },
        "projectionMatrix": {
          "semantic": "PROJECTION",
          "type": 35676
        },
        "normalMatrix": {
          "semantic": "MODELVIEWINVERSETRANSPOSE",
          "type": 35675
        },
        "ambient": {
          "type": 35666
        },
        "diffuse": {
          "type": 35678
        },
        "emission": {
          "type": 35666
        },
        "specular": {
          "type": 35666
        },
        "shininess": {
          "type": 5126
        },
        "transparency": {
          "type": 5126
        },
        "position": {
          "semantic": "POSITION",
          "type": 35665
        },
        "normal": {
          "semantic": "NORMAL",
          "type": 35665
        },
        "texcoord_0": {
          "semantic": "TEXCOORD_0",
          "type": 35664
        }
      },
      "program": "program1",
      "states": {
        "enable": [
          2884,
          2929
        ]
      },
      "uniforms": {
        "u_modelViewMatrix": "modelViewMatrix",
        "u_projectionMatrix": "projectionMatrix",
        "u_normalMatrix": "normalMatrix",
        "u_ambient": "ambient",
        "u_diffuse": "diffuse",
        "u_emission": "emission",
        "u_specular": "specular",
        "u_shininess": "shininess",
        "u_transparency": "transparency"
      }
    }
  },
  "programs": {
    "program0": {
      "attributes": [
        "a_position",
        "a_normal",
        "a_texcoord_0"
      ],
      "fragmentShader": "fragmentShader0",
      "vertexShader": "vertexShader0"
    },
    "program1": {
      "attributes": [
        "a_position",
        "a_normal",
        "a_texcoord_0"
      ],
      "fragmentShader": "fragmentShader1",
      "vertexShader": "vertexShader1"
    }
  },
  "shaders": {
    "vertexShader0": {
      "type": 35633,
      "uri": "data:text/plain;base64,"
    },
    "fragmentShader0": {
      "type": 35632,
      "uri": "data:text/plain;base64, highp float;\nuniform vec4 u_ambient;\nuniform vec4 u_diffuse;\nuniform vec4 u_emission;\nuniform vec4 u_specular;\nuniform float u_shininess;\nuniform float u_transparency;\nvarying vec3 v_positionEC;\nvarying vec3 v_normal;\nvoid main(void) {\n  vec3 normal = normalize(v_normal);\n  vec4 diffuse = u_diffuse;\n  vec3 diffuseLight = vec3(0.0, 0.0, 0.0);\n  vec3 specular = u_specular.rgb;\n  vec3 specularLight = vec3(0.0, 0.0, 0.0);\n  vec3 emission = u_emission.rgb;\n  vec3 ambient = u_ambient.rgb;\n  vec3 viewDir = -normalize(v_positionEC);\n  vec3 ambientLight = vec3(0.0, 0.0, 0.0);\n  ambientLight += vec3(0.2, 0.2, 0.2);\n  vec3 l = vec3(0.0, 0.0, 1.0);\n  diffuseLight += vec3(1.0, 1.0, 1.0) * max(dot(normal,l), 0.);\n  vec3 h = normalize(l + viewDir);\n  float specularIntensity = max(0., pow(max(dot(normal, h), 0.), u_shininess));\n  specularLight += vec3(1.0, 1.0, 1.0) * specularIntensity;\n  vec3 color = vec3(0.0, 0.0, 0.0);\n  color += diffuse.rgb * diffuseLight;\n  color += specular * specularLight;\n  color += emission;\n  color += ambient * ambientLight;\n  gl_FragColor = vec4(color * diffuse.a, diffuse.a * u_transparency);\n}\n"
    },
    "vertexShader1": {
      "type": 35633,
      "uri": "data:text/plain;base64, highp float;\nuniform mat4 u_modelViewMatrix;\nuniform mat4 u_projectionMatrix;\nuniform mat3 u_normalMatrix;\nattribute vec3 a_position;\nvarying vec3 v_positionEC;\nattribute vec3 a_normal;\nvarying vec3 v_normal;\nattribute vec2 a_texcoord_0;\nvarying vec2 v_texcoord_0;\nvoid main(void) {\n  vec4 pos = u_modelViewMatrix * vec4(a_position,1.0);\n  v_positionEC = pos.xyz;\n  gl_Position = u_projectionMatrix * pos;\n  v_normal = u_normalMatrix * a_normal;\n  v_texcoord_0 = a_texcoord_0;\n}\n"
    },
    "fragmentShader1": {
      "type": 35632,
      "uri": "data:text/plain;base64, highp float;\nuniform vec4 u_ambient;\nuniform sampler2D u_diffuse;\nuniform vec4 u_emission;\nuniform vec4 u_specular;\nuniform float u_shininess;\nuniform float u_transparency;\nvarying vec3 v_positionEC;\nvarying vec3 v_normal;\nvarying vec2 v_texcoord_0;\nvoid main(void) {\n  vec3 normal = normalize(v_normal);\n  vec4 diffuse = texture2D(u_diffuse, v_texcoord_0);\n  vec3 diffuseLight = vec3(0.0, 0.0, 0.0);\n  vec3 specular = u_specular.rgb;\n  vec3 specularLight = vec3(0.0, 0.0, 0.0);\n  vec3 emission = u_emission.rgb;\n  vec3 ambient = u_ambient.rgb;\n  vec3 viewDir = -normalize(v_positionEC);\n  vec3 ambientLight = vec3(0.0, 0.0, 0.0);\n  ambientLight += vec3(0.2, 0.2, 0.2);\n  vec3 l = vec3(0.0, 0.0, 1.0);\n  diffuseLight += vec3(1.0, 1.0, 1.0) * max(dot(normal,l), 0.);\n  vec3 h = normalize(l + viewDir);\n  float specularIntensity = max(0., pow(max(dot(normal, h), 0.), u_shininess));\n  specularLight += vec3(1.0, 1.0, 1.0) * specularIntensity;\n  vec3 color = vec3(0.0, 0.0, 0.0);\n  color += diffuse.rgb * diffuseLight;\n  color += specular * specularLight;\n  color += emission;\n  color += ambient * ambientLight;\n  gl_FragColor = vec4(color * diffuse.a, diffuse.a * u_transparency);\n}\n"
    }
  },
  "skins": {},
  "extensions": {}
}
