{
  "accessors": {
    "accessor_index_0": {
      "bufferView": "bufferView_1",
      "byteOffset": 0,
      "byteStride": 0,
      "componentType": 5123,
      "count": 15936,
      "type": "SCALAR",
      "min": [
        0
      ],
      "max": [
        9145
      ]
    },
    "accessor_index_1": {
      "bufferView": "bufferView_1",
      "byteOffset": 31872,
      "byteStride": 0,
      "componentType": 5123,
      "count": 192,
      "type": "SCALAR",
      "min": [
        448
      ],
      "max": [
        2593
      ]
    },
    "accessor_index_2": {
      "bufferView": "bufferView_1",
      "byteOffset": 32256,
      "byteStride": 0,
      "componentType": 5123,
      "count": 1944,
      "type": "SCALAR",
      "min": [
        472
      ],
      "max": [
        1143
      ]
    },
    "accessor_index_3": {
      "bufferView": "bufferView_1",
      "byteOffset": 36144,
      "byteStride": 0,
      "componentType": 5123,
      "count": 768,
      "type": "SCALAR",
      "min": [
        1640
      ],
      "max": [
        2215
      ]
    },
    "accessor_index_4": {
      "bufferView": "bufferView_1",
      "byteOffset": 37680,
      "byteStride": 0,
      "componentType": 5123,
      "count": 3252,
      "type": "SCALAR",
      "min": [
        2440
      ],
      "max": [
        4529
      ]
    },
    "accessor_index_5": {
      "bufferView": "bufferView_1",
      "byteOffset": 44184,
      "byteStride": 0,
      "componentType": 5123,
      "count": 372,
      "type": "SCALAR",
      "min": [
        2594
      ],
      "max": [
        2729
      ]
    },
    "accessor_index_6": {
      "bufferView": "bufferView_1",
      "byteOffset": 44928,
      "byteStride": 0,
      "componentType": 5123,
      "count": 1680,
      "type": "SCALAR",
      "min": [
        3002
      ],
      "max": [
        4257
      ]
    },
    "accessor_index_7": {
      "bufferView": "bufferView_1",
      "byteOffset": 48288,
      "byteStride": 0,
      "componentType": 5123,
      "count": 144,
      "type": "SCALAR",
      "min": [
        3162
      ],
      "max": [
        4553
      ]
    },
    "accessor_index_8": {
      "bufferView": "bufferView_1",
      "byteOffset": 48576,
      "byteStride": 0,
      "componentType": 5123,
      "count": 72,
      "type": "SCALAR",
      "min": [
        4554
      ],
      "max": [
        6873
      ]
    },
    "accessor_index_9": {
      "bufferView": "bufferView_1",
      "byteOffset": 48720,
      "byteStride": 0,
      "componentType": 5123,
      "count": 288,
      "type": "SCALAR",
      "min": [
        9146
      ],
      "max": [
        9337
      ]
    },
    "accessor_position": {
      "bufferView": "bufferView_0",
      "byteOffset": 0,
      "byteStride": 0,
      "componentType": 5126,
      "count": 9216,
      "min": [
        -127000,
        0,
        -127000
      ],
      "max": [
        127000,
        735110.375,
        127000
      ],
      "type": "VEC3"
    },
    "accessor_normal": {
      "bufferView": "bufferView_0",
      "byteOffset": 110592,
      "byteStride": 0,
      "componentType": 5126,
      "count": 9216,
      "type": "VEC3",
      "min": [
        -1,
        -1,
        -1
      ],
      "max": [
        1,
        1,
        1
      ]
    }
  },
  "asset": {
    "generator": "OBJ2GLTF",
    "premultipliedAlpha": true,
    "profile": {
      "api": "WebGL",
      "version": "1.0"
    },
    "version": "1.0"
  },
  "buffers": {
    "buffer_0": {
      "type": "arraybuffer",
      "byteLength": 270480,
      "uri": "data:application/octet-stream;base64,"
    }
  },
  "bufferViews": {
    "bufferView_0": {
      "buffer": "buffer_0",
      "byteLength": 221184,
      "byteOffset": 0,
      "target": 34962
    },
    "bufferView_1": {
      "buffer": "buffer_0",
      "byteLength": 49296,
      "byteOffset": 221184,
      "target": 34963
    }
  },
  "images": {},
  "materials": {
    "material_wire_000000000": {
      "name": "wire_000000000",
      "extensions": {},
      "values": {
        "ambient": [
          0,
          0,
          0,
          1
        ],
        "diffuse": [
          0,
          0,
          0,
          1
        ],
        "emission": [
          0,
          0,
          0,
          1
        ],
        "specular": [
          0.35,
          0.35,
          0.35,
          1
        ],
        "shininess": 32,
        "transparency": 1
      },
      "technique": "technique0"
    },
    "material_wire_228153184": {
      "name": "wire_228153184",
      "extensions": {},
      "values": {
        "ambient": [
          0.8941,
          0.6,
          0.7216,
          1
        ],
        "diffuse": [
          0.8941,
          0.6,
          0.7216,
          1
        ],
        "emission": [
          0,
          0,
          0,
          1
        ],
        "specular": [
          0.35,
          0.35,
          0.35,
          1
        ],
        "shininess": 32,
        "transparency": 1
      },
      "technique": "technique0"
    },
    "material_wire_153228214": {
      "name": "wire_153228214",
      "extensions": {},
      "values": {
        "ambient": [
          0.6,
          0.8941,
          0.8392,
          1
        ],
        "diffuse": [
          0.6,
          0.8941,
          0.8392,
          1
        ],
        "emission": [
          0,
          0,
          0,
          1
        ],
        "specular": [
          0.35,
          0.35,
          0.35,
          1
        ],
        "shininess": 32,
        "transparency": 1
      },
      "technique": "technique0"
    },
    "material_MyMtl_01": {
      "name": "MyMtl_01",
      "extensions": {},
      "values": {
        "ambient": [
          0.588,
          0.588,
          0.588,
          1
        ],
        "diffuse": [
          0.588,
          0.588,
          0.588,
          1
        ],
        "emission": [
          0,
          0,
          0,
          1
        ],
        "specular": [
          0,
          0,
          0,
          1
        ],
        "shininess": 10,
        "transparency": 1
      },
      "technique": "technique0"
    },
    "material_wire_255255255": {
      "name": "wire_255255255",
      "extensions": {},
      "values": {
        "ambient": [
          1,
          1,
          1,
          1
        ],
        "diffuse": [
          1,
          1,
          1,
          1
        ],
        "emission": [
          0,
          0,
          0,
          1
        ],
        "specular": [
          0.35,
          0.35,
          0.35,
          1
        ],
        "shininess": 32,
        "transparency": 1
      },
      "technique": "technique0"
    },
    "material_wire_225127101": {
      "name": "wire_225127101",
      "extensions": {},
      "values": {
        "ambient": [
          0.8824,
          0.498,
          0.3961,
          1
        ],
        "diffuse": [
          0.8824,
          0.498,
          0.3961,
          1
        ],
        "emission": [
          0,
          0,
          0,
          1
        ],
        "specular": [
          0.35,
          0.35,
          0.35,
          1
        ],
        "shininess": 32,
        "transparency": 1
      },
      "technique": "technique0"
    },
    "material_wire_113134006": {
      "name": "wire_113134006",
      "extensions": {},
      "values": {
        "ambient": [
          0.4431,
          0.5255,
          0.0235,
          1
        ],
        "diffuse": [
          0.4431,
          0.5255,
          0.0235,
          1
        ],
        "emission": [
          0,
          0,
          0,
          1
        ],
        "specular": [
          0.35,
          0.35,
          0.35,
          1
        ],
        "shininess": 32,
        "transparency": 1
      },
      "technique": "technique0"
    },
    "material_wire_228184153": {
      "name": "wire_228184153",
      "extensions": {},
      "values": {
        "ambient": [
          0.8941,
          0.7216,
          0.6,
          1
        ],
        "diffuse": [
          0.8941,
          0.7216,
          0.6,
          1
        ],
        "emission": [
          0,
          0,
          0,
          1
        ],
        "specular": [
          0.35,
          0.35,
          0.35,
          1
        ],
        "shininess": 32,
        "transparency": 1
      },
      "technique": "technique0"
    },
    "material_wire_234255000": {
      "name": "wire_234255000",
      "extensions": {},
      "values": {
        "ambient": [
          0.9176,
          1,
          0,
          1
        ],
        "diffuse": [
          0.9176,
          1,
          0,
          1
        ],
        "emission": [
          0,
          0,
          0,
          1
        ],
        "specular": [
          0.35,
          0.35,
          0.35,
          1
        ],
        "shininess": 32,
        "transparency": 1
      },
      "technique": "technique0"
    },
    "material_wire_148177026": {
      "name": "wire_148177026",
      "extensions": {},
      "values": {
        "ambient": [
          0.5804,
          0.6941,
          0.102,
          1
        ],
        "diffuse": [
          0.5804,
          0.6941,
          0.102,
          0
        ],
        "emission": [
          0,
          0,
          0,
          1
        ],
        "specular": [
          0.35,
          0.35,
          0.35,
          1
        ],
        "shininess": 32,
        "transparency": 1
      },
      "technique": "technique1"
    }
  },
  "meshes": {
    "mesh_dengta": {
      "name": "dengta",
      "primitives": [
        {
          "attributes": {
            "POSITION": "accessor_position",
            "NORMAL": "accessor_normal"
          },
          "indices": "accessor_index_0",
          "material": "material_wire_000000000",
          "mode": 4
        },
        {
          "attributes": {
            "POSITION": "accessor_position",
            "NORMAL": "accessor_normal"
          },
          "indices": "accessor_index_1",
          "material": "material_wire_228153184",
          "mode": 4
        },
        {
          "attributes": {
            "POSITION": "accessor_position",
            "NORMAL": "accessor_normal"
          },
          "indices": "accessor_index_2",
          "material": "material_wire_153228214",
          "mode": 4
        },
        {
          "attributes": {
            "POSITION": "accessor_position",
            "NORMAL": "accessor_normal"
          },
          "indices": "accessor_index_3",
          "material": "material_MyMtl_01",
          "mode": 4
        },
        {
          "attributes": {
            "POSITION": "accessor_position",
            "NORMAL": "accessor_normal"
          },
          "indices": "accessor_index_4",
          "material": "material_wire_255255255",
          "mode": 4
        },
        {
          "attributes": {
            "POSITION": "accessor_position",
            "NORMAL": "accessor_normal"
          },
          "indices": "accessor_index_5",
          "material": "material_wire_225127101",
          "mode": 4
        },
        {
          "attributes": {
            "POSITION": "accessor_position",
            "NORMAL": "accessor_normal"
          },
          "indices": "accessor_index_6",
          "material": "material_wire_113134006",
          "mode": 4
        },
        {
          "attributes": {
            "POSITION": "accessor_position",
            "NORMAL": "accessor_normal"
          },
          "indices": "accessor_index_7",
          "material": "material_wire_228184153",
          "mode": 4
        },
        {
          "attributes": {
            "POSITION": "accessor_position",
            "NORMAL": "accessor_normal"
          },
          "indices": "accessor_index_8",
          "material": "material_wire_234255000",
          "mode": 4
        },
        {
          "attributes": {
            "POSITION": "accessor_position",
            "NORMAL": "accessor_normal"
          },
          "indices": "accessor_index_9",
          "material": "material_wire_148177026",
          "mode": 4
        }
      ]
    }
  },
  "nodes": {
    "rootNode": {
      "children": [],
      "meshes": [
        "mesh_dengta"
      ],
      "matrix": [
        1,
        0,
        0,
        0,
        0,
        1,
        0,
        0,
        0,
        0,
        1,
        0,
        0,
        0,
        0,
        1
      ]
    }
  },
  "samplers": {},
  "scene": "scene_dengta",
  "scenes": {
    "scene_dengta": {
      "nodes": [
        "rootNode"
      ]
    }
  },
  "textures": {},
  "extensionsUsed": [],
  "animations": {},
  "cameras": {},
  "techniques": {
    "technique0": {
      "attributes": {
        "a_position": "position",
        "a_normal": "normal"
      },
      "parameters": {
        "modelViewMatrix": {
          "semantic": "MODELVIEW",
          "type": 35676
        },
        "projectionMatrix": {
          "semantic": "PROJECTION",
          "type": 35676
        },
        "normalMatrix": {
          "semantic": "MODELVIEWINVERSETRANSPOSE",
          "type": 35675
        },
        "ambient": {
          "type": 35666
        },
        "diffuse": {
          "type": 35666
        },
        "emission": {
          "type": 35666
        },
        "specular": {
          "type": 35666
        },
        "shininess": {
          "type": 5126
        },
        "transparency": {
          "type": 5126
        },
        "position": {
          "semantic": "POSITION",
          "type": 35665
        },
        "normal": {
          "semantic": "NORMAL",
          "type": 35665
        }
      },
      "program": "program0",
      "states": {
        "enable": [
          2884,
          2929
        ]
      },
      "uniforms": {
        "u_modelViewMatrix": "modelViewMatrix",
        "u_projectionMatrix": "projectionMatrix",
        "u_normalMatrix": "normalMatrix",
        "u_ambient": "ambient",
        "u_diffuse": "diffuse",
        "u_emission": "emission",
        "u_specular": "specular",
        "u_shininess": "shininess",
        "u_transparency": "transparency"
      }
    },
    "technique1": {
      "attributes": {
        "a_position": "position",
        "a_normal": "normal"
      },
      "parameters": {
        "modelViewMatrix": {
          "semantic": "MODELVIEW",
          "type": 35676
        },
        "projectionMatrix": {
          "semantic": "PROJECTION",
          "type": 35676
        },
        "normalMatrix": {
          "semantic": "MODELVIEWINVERSETRANSPOSE",
          "type": 35675
        },
        "ambient": {
          "type": 35666
        },
        "diffuse": {
          "type": 35666
        },
        "emission": {
          "type": 35666
        },
        "specular": {
          "type": 35666
        },
        "shininess": {
          "type": 5126
        },
        "transparency": {
          "type": 5126
        },
        "position": {
          "semantic": "POSITION",
          "type": 35665
        },
        "normal": {
          "semantic": "NORMAL",
          "type": 35665
        }
      },
      "program": "program1",
      "states": {
        "enable": [
          2929,
          3042
        ],
        "depthMask": false,
        "functions": {
          "blendEquationSeparate": [
            32774,
            32774
          ],
          "blendFuncSeparate": [
            1,
            771,
            1,
            771
          ]
        }
      },
      "uniforms": {
        "u_modelViewMatrix": "modelViewMatrix",
        "u_projectionMatrix": "projectionMatrix",
        "u_normalMatrix": "normalMatrix",
        "u_ambient": "ambient",
        "u_diffuse": "diffuse",
        "u_emission": "emission",
        "u_specular": "specular",
        "u_shininess": "shininess",
        "u_transparency": "transparency"
      }
    }
  },
  "programs": {
    "program0": {
      "attributes": [
        "a_position",
        "a_normal"
      ],
      "fragmentShader": "fragmentShader0",
      "vertexShader": "vertexShader0"
    },
    "program1": {
      "attributes": [
        "a_position",
        "a_normal"
      ],
      "fragmentShader": "fragmentShader1",
      "vertexShader": "vertexShader1"
    }
  },
  "shaders": {
    "vertexShader0": {
      "type": 35633,
      "uri": "data:text/plain;base64,"
    },
    "fragmentShader0": {
      "type": 35632,
      "uri": "data:text/plain;base64,"
    },
    "vertexShader1": {
      "type": 35633,
      "uri": "data:text/plain;base64,"
    },
    "fragmentShader1": {
      "type": 35632,
      "uri": "data:text/plain;base64,"
    }
  },
  "skins": {},
  "extensions": {}
}
