{
  "accessors": {
    "accessor_index_0": {
      "bufferView": "bufferView_1",
      "byteOffset": 0,
      "byteStride": 0,
      "componentType": 5123,
      "count": 15390,
      "type": "SCALAR",
      "min": [
        0
      ],
      "max": [
        6043
      ]
    },
    "accessor_position": {
      "bufferView": "bufferView_0",
      "byteOffset": 0,
      "byteStride": 0,
      "componentType": 5126,
      "count": 6012,
      "min": [
        -93.07679748535156,
        0,
        -45.02130126953125
      ],
      "max": [
        93.07679748535156,
        294.32708740234375,
        45.02130126953125
      ],
      "type": "VEC3"
    },
    "accessor_normal": {
      "bufferView": "bufferView_0",
      "byteOffset": 72144,
      "byteStride": 0,
      "componentType": 5126,
      "count": 6012,
      "type": "VEC3",
      "min": [
        -1,
        -1,
        -1
      ],
      "max": [
        1,
        1,
        1
      ]
    }
  },
  "asset": {
    "generator": "OBJ2GLTF",
    "premultipliedAlpha": true,
    "profile": {
      "api": "WebGL",
      "version": "1.0"
    },
    "version": "1.0"
  },
  "buffers": {
    "hangtian_buffer": {
      "type": "arraybuffer",
      "byteLength": 175068,
      "uri": "data:application/octet-stream;base64,"
    }
  },
  "bufferViews": {
    "bufferView_0": {
      "buffer": "hangtian_buffer",
      "byteLength": 144288,
      "byteOffset": 0,
      "target": 34962
    },
    "bufferView_1": {
      "buffer": "hangtian_buffer",
      "byteLength": 30780,
      "byteOffset": 144288,
      "target": 34963
    }
  },
  "images": {},
  "materials": {
    "material_White_Matte": {
      "name": "White_Matte",
      "extensions": {},
      "values": {
        "ambient": [
          0.7451,
          0.7451,
          0.7451,
          1
        ],
        "diffuse": [
          0.9412,
          0.9412,
          0.9412,
          0
        ],
        "emission": [
          0,
          0,
          0,
          1
        ],
        "specular": [
          0,
          0,
          0,
          1
        ],
        "shininess": 0,
        "transparency": 1
      },
      "technique": "technique0"
    }
  },
  "meshes": {
    "mesh_hangtian": {
      "name": "hangtian",
      "primitives": [
        {
          "attributes": {
            "POSITION": "accessor_position",
            "NORMAL": "accessor_normal"
          },
          "indices": "accessor_index_0",
          "material": "material_White_Matte",
          "mode": 4
        }
      ]
    }
  },
  "nodes": {
    "rootNode": {
      "children": [],
      "meshes": [
        "mesh_hangtian"
      ],
      "matrix": [
        1,
        0,
        0,
        0,
        0,
        1,
        0,
        0,
        0,
        0,
        1,
        0,
        0,
        0,
        0,
        1
      ]
    }
  },
  "samplers": {},
  "scene": "scene_hangtian",
  "scenes": {
    "scene_hangtian": {
      "nodes": [
        "rootNode"
      ]
    }
  },
  "textures": {},
  "extensionsUsed": [],
  "animations": {},
  "cameras": {},
  "techniques": {
    "technique0": {
      "attributes": {
        "a_position": "position",
        "a_normal": "normal"
      },
      "parameters": {
        "modelViewMatrix": {
          "semantic": "MODELVIEW",
          "type": 35676
        },
        "projectionMatrix": {
          "semantic": "PROJECTION",
          "type": 35676
        },
        "normalMatrix": {
          "semantic": "MODELVIEWINVERSETRANSPOSE",
          "type": 35675
        },
        "ambient": {
          "type": 35666
        },
        "diffuse": {
          "type": 35666
        },
        "emission": {
          "type": 35666
        },
        "specular": {
          "type": 35666
        },
        "shininess": {
          "type": 5126
        },
        "transparency": {
          "type": 5126
        },
        "position": {
          "semantic": "POSITION",
          "type": 35665
        },
        "normal": {
          "semantic": "NORMAL",
          "type": 35665
        }
      },
      "program": "program0",
      "states": {
        "enable": [
          2929,
          3042
        ],
        "depthMask": false,
        "functions": {
          "blendEquationSeparate": [
            32774,
            32774
          ],
          "blendFuncSeparate": [
            1,
            771,
            1,
            771
          ]
        }
      },
      "uniforms": {
        "u_modelViewMatrix": "modelViewMatrix",
        "u_projectionMatrix": "projectionMatrix",
        "u_normalMatrix": "normalMatrix",
        "u_ambient": "ambient",
        "u_diffuse": "diffuse",
        "u_emission": "emission",
        "u_specular": "specular",
        "u_shininess": "shininess",
        "u_transparency": "transparency"
      }
    }
  },
  "programs": {
    "program0": {
      "attributes": [
        "a_position",
        "a_normal"
      ],
      "fragmentShader": "fragmentShader0",
      "vertexShader": "vertexShader0"
    }
  },
  "shaders": {
    "vertexShader0": {
      "type": 35633,
      "uri": "data:text/plain;base64, highp float;\nuniform mat4 u_modelViewMatrix;\nuniform mat4 u_projectionMatrix;\nuniform mat3 u_normalMatrix;\nattribute vec3 a_position;\nvarying vec3 v_positionEC;\nattribute vec3 a_normal;\nvarying vec3 v_normal;\nvoid main(void) {\n  vec4 pos = u_modelViewMatrix * vec4(a_position,1.0);\n  v_positionEC = pos.xyz;\n  gl_Position = u_projectionMatrix * pos;\n  v_normal = u_normalMatrix * a_normal;\n}\n"
    },
    "fragmentShader0": {
      "type": 35632,
      "uri": "data:text/plain;base64, highp float;\nuniform vec4 u_ambient;\nuniform vec4 u_diffuse;\nuniform vec4 u_emission;\nuniform vec4 u_specular;\nuniform float u_shininess;\nuniform float u_transparency;\nvarying vec3 v_positionEC;\nvarying vec3 v_normal;\nvoid main(void) {\n  vec3 normal = normalize(v_normal);\n  vec4 diffuse = u_diffuse;\n  vec3 diffuseLight = vec3(0.0, 0.0, 0.0);\n  vec3 specular = u_specular.rgb;\n  vec3 specularLight = vec3(0.0, 0.0, 0.0);\n  vec3 emission = u_emission.rgb;\n  vec3 ambient = u_ambient.rgb;\n  vec3 viewDir = -normalize(v_positionEC);\n  vec3 ambientLight = vec3(0.0, 0.0, 0.0);\n  ambientLight += vec3(0.2, 0.2, 0.2);\n  vec3 l = vec3(0.0, 0.0, 1.0);\n  diffuseLight += vec3(1.0, 1.0, 1.0) * max(dot(normal,l), 0.);\n  vec3 h = normalize(l + viewDir);\n  float specularIntensity = max(0., pow(max(dot(normal, h), 0.), u_shininess));\n  specularLight += vec3(1.0, 1.0, 1.0) * specularIntensity;\n  vec3 color = vec3(0.0, 0.0, 0.0);\n  color += diffuse.rgb * diffuseLight;\n  color += specular * specularLight;\n  color += emission;\n  color += ambient * ambientLight;\n  gl_FragColor = vec4(color * diffuse.a, diffuse.a * u_transparency);\n}\n"
    }
  },
  "skins": {},
  "extensions": {}
}
