{
  "accessors": {
    "accessor_index_0": {
      "bufferView": "bufferView_1",
      "byteOffset": 0,
      "byteStride": 0,
      "componentType": 5123,
      "count": 3219,
      "type": "SCALAR",
      "min": [
        0
      ],
      "max": [
        1842
      ]
    },
    "accessor_index_1": {
      "bufferView": "bufferView_1",
      "byteOffset": 6438,
      "byteStride": 0,
      "componentType": 5123,
      "count": 3267,
      "type": "SCALAR",
      "min": [
        0
      ],
      "max": [
        2034
      ]
    },
    "accessor_index_2": {
      "bufferView": "bufferView_1",
      "byteOffset": 12972,
      "byteStride": 0,
      "componentType": 5123,
      "count": 10518,
      "type": "SCALAR",
      "min": [
        2035
      ],
      "max": [
        6492
      ]
    },
    "accessor_index_3": {
      "bufferView": "bufferView_1",
      "byteOffset": 34008,
      "byteStride": 0,
      "componentType": 5123,
      "count": 984,
      "type": "SCALAR",
      "min": [
        2725
      ],
      "max": [
        2962
      ]
    },
    "accessor_index_4": {
      "bufferView": "bufferView_1",
      "byteOffset": 35976,
      "byteStride": 0,
      "componentType": 5123,
      "count": 498,
      "type": "SCALAR",
      "min": [
        3005
      ],
      "max": [
        8449
      ]
    },
    "accessor_index_5": {
      "bufferView": "bufferView_1",
      "byteOffset": 36972,
      "byteStride": 0,
      "componentType": 5123,
      "count": 186,
      "type": "SCALAR",
      "min": [
        3200
      ],
      "max": [
        8412
      ]
    },
    "accessor_index_6": {
      "bufferView": "bufferView_1",
      "byteOffset": 37344,
      "byteStride": 0,
      "componentType": 5123,
      "count": 243,
      "type": "SCALAR",
      "min": [
        5375
      ],
      "max": [
        5456
      ]
    },
    "accessor_index_7": {
      "bufferView": "bufferView_1",
      "byteOffset": 37830,
      "byteStride": 0,
      "componentType": 5123,
      "count": 432,
      "type": "SCALAR",
      "min": [
        6277
      ],
      "max": [
        6432
      ]
    },
    "accessor_index_8": {
      "bufferView": "bufferView_1",
      "byteOffset": 38694,
      "byteStride": 0,
      "componentType": 5123,
      "count": 5190,
      "type": "SCALAR",
      "min": [
        6493
      ],
      "max": [
        8551
      ]
    },
    "accessor_index_9": {
      "bufferView": "bufferView_1",
      "byteOffset": 49074,
      "byteStride": 0,
      "componentType": 5123,
      "count": 306,
      "type": "SCALAR",
      "min": [
        8017
      ],
      "max": [
        8141
      ]
    },
    "accessor_index_10": {
      "bufferView": "bufferView_1",
      "byteOffset": 49686,
      "byteStride": 0,
      "componentType": 5123,
      "count": 12,
      "type": "SCALAR",
      "min": [
        8075
      ],
      "max": [
        8080
      ]
    },
    "accessor_index_11": {
      "bufferView": "bufferView_1",
      "byteOffset": 49710,
      "byteStride": 0,
      "componentType": 5123,
      "count": 303,
      "type": "SCALAR",
      "min": [
        8142
      ],
      "max": [
        8266
      ]
    },
    "accessor_index_12": {
      "bufferView": "bufferView_1",
      "byteOffset": 50316,
      "byteStride": 0,
      "componentType": 5123,
      "count": 15,
      "type": "SCALAR",
      "min": [
        8200
      ],
      "max": [
        8218
      ]
    },
    "accessor_position": {
      "bufferView": "bufferView_0",
      "byteOffset": 0,
      "byteStride": 0,
      "componentType": 5126,
      "count": 8426,
      "min": [
        -42844.4375,
        -57162.5234375,
        -327652
      ],
      "max": [
        46823.12890625,
        199964.8125,
        328396.90625
      ],
      "type": "VEC3"
    },
    "accessor_normal": {
      "bufferView": "bufferView_0",
      "byteOffset": 101112,
      "byteStride": 0,
      "componentType": 5126,
      "count": 8426,
      "type": "VEC3",
      "min": [
        -1,
        -1,
        -1
      ],
      "max": [
        1,
        1,
        1
      ]
    }
  },
  "asset": {
    "generator": "OBJ2GLTF",
    "premultipliedAlpha": true,
    "profile": {
      "api": "WebGL",
      "version": "1.0"
    },
    "version": "1.0"
  },
  "buffers": {
    "buffer_0": {
      "type": "arraybuffer",
      "byteLength": 252570,
      "uri": "data:application/octet-stream;base64,"
    }
  },
  "bufferViews": {
    "bufferView_0": {
      "buffer": "buffer_0",
      "byteLength": 202224,
      "byteOffset": 0,
      "target": 34962
    },
    "bufferView_1": {
      "buffer": "buffer_0",
      "byteLength": 50346,
      "byteOffset": 202224,
      "target": 34963
    }
  },
  "images": {},
  "materials": {
    "material_SCcasco2": {
      "name": "SCcasco2",
      "extensions": {},
      "values": {
        "ambient": [
          0,
          0,
          0,
          1
        ],
        "diffuse": [
          0.5255,
          0.5255,
          0.4039,
          1
        ],
        "emission": [
          0,
          0,
          0,
          1
        ],
        "specular": [
          0.05,
          0.05,
          0.05,
          1
        ],
        "shininess": 1,
        "transparency": 1
      },
      "technique": "technique0"
    },
    "material_SCcasco": {
      "name": "SCcasco",
      "extensions": {},
      "values": {
        "ambient": [
          0,
          0,
          0,
          1
        ],
        "diffuse": [
          0.5255,
          0.5255,
          0.4039,
          1
        ],
        "emission": [
          0,
          0,
          0,
          1
        ],
        "specular": [
          0.05,
          0.05,
          0.05,
          1
        ],
        "shininess": 1,
        "transparency": 1
      },
      "technique": "technique0"
    },
    "material_Sccasc": {
      "name": "Sccasc",
      "extensions": {},
      "values": {
        "ambient": [
          0,
          0,
          0,
          1
        ],
        "diffuse": [
          0.3216,
          0.3216,
          0.302,
          1
        ],
        "emission": [
          0,
          0,
          0,
          1
        ],
        "specular": [
          0.05,
          0.05,
          0.05,
          1
        ],
        "shininess": 1,
        "transparency": 1
      },
      "technique": "technique0"
    },
    "material_Default": {
      "name": "Default",
      "extensions": {},
      "values": {
        "ambient": [
          0.7,
          0.7,
          0.7,
          1
        ],
        "diffuse": [
          0.7,
          0.7,
          0.7,
          1
        ],
        "emission": [
          0,
          0,
          0,
          1
        ],
        "specular": [
          0.707,
          0.707,
          0.707,
          1
        ],
        "shininess": 50,
        "transparency": 1
      },
      "technique": "technique0"
    },
    "material_SCtelc": {
      "name": "SCtelc",
      "extensions": {},
      "values": {
        "ambient": [
          0,
          0,
          0,
          1
        ],
        "diffuse": [
          0.7373,
          0.6471,
          0.4706,
          1
        ],
        "emission": [
          0,
          0,
          0,
          1
        ],
        "specular": [
          0.0396,
          0.0396,
          0.0396,
          1
        ],
        "shininess": 1,
        "transparency": 1
      },
      "technique": "technique0"
    },
    "material_scgrey": {
      "name": "scgrey",
      "extensions": {},
      "values": {
        "ambient": [
          0,
          0,
          0,
          1
        ],
        "diffuse": [
          0.302,
          0.3059,
          0.3098,
          1
        ],
        "emission": [
          0,
          0,
          0,
          1
        ],
        "specular": [
          0.0396,
          0.0396,
          0.0396,
          1
        ],
        "shininess": 1,
        "transparency": 1
      },
      "technique": "technique0"
    },
    "material_SCcubierta": {
      "name": "SCcubierta",
      "extensions": {},
      "values": {
        "ambient": [
          0,
          0,
          0,
          1
        ],
        "diffuse": [
          0.6667,
          0.6118,
          0.4,
          1
        ],
        "emission": [
          0,
          0,
          0,
          1
        ],
        "specular": [
          0.0396,
          0.0396,
          0.0396,
          1
        ],
        "shininess": 40,
        "transparency": 1
      },
      "technique": "technique0"
    },
    "material_SCbidone": {
      "name": "SCbidone",
      "extensions": {},
      "values": {
        "ambient": [
          0,
          0,
          0,
          1
        ],
        "diffuse": [
          0.2196,
          0.0196,
          0.0118,
          1
        ],
        "emission": [
          0,
          0,
          0,
          1
        ],
        "specular": [
          0.05,
          0.05,
          0.05,
          1
        ],
        "shininess": 1,
        "transparency": 1
      },
      "technique": "technique0"
    },
    "material_sctimon": {
      "name": "sctimon",
      "extensions": {},
      "values": {
        "ambient": [
          0,
          0,
          0,
          1
        ],
        "diffuse": [
          0.0314,
          0.0314,
          0.0275,
          1
        ],
        "emission": [
          0,
          0,
          0,
          1
        ],
        "specular": [
          0.05,
          0.05,
          0.05,
          1
        ],
        "shininess": 20,
        "transparency": 1
      },
      "technique": "technique0"
    },
    "material_scluzd": {
      "name": "scluzd",
      "extensions": {},
      "values": {
        "ambient": [
          0,
          0,
          0,
          1
        ],
        "diffuse": [
          0.051,
          0.1843,
          0.051,
          1
        ],
        "emission": [
          0,
          0,
          0,
          1
        ],
        "specular": [
          0.05,
          0.05,
          0.05,
          1
        ],
        "shininess": 20,
        "transparency": 1
      },
      "technique": "technique0"
    },
    "material_SCluzd": {
      "name": "SCluzd",
      "extensions": {},
      "values": {
        "ambient": [
          0,
          0,
          0,
          1
        ],
        "diffuse": [
          0,
          0.0275,
          0,
          1
        ],
        "emission": [
          0,
          0,
          0,
          1
        ],
        "specular": [
          0.05,
          0.05,
          0.05,
          1
        ],
        "shininess": 100,
        "transparency": 1
      },
      "technique": "technique0"
    },
    "material_SCbidone1": {
      "name": "SCbidone1",
      "extensions": {},
      "values": {
        "ambient": [
          0,
          0,
          0,
          1
        ],
        "diffuse": [
          0.2196,
          0.0196,
          0.0118,
          1
        ],
        "emission": [
          0,
          0,
          0,
          1
        ],
        "specular": [
          0.05,
          0.05,
          0.05,
          1
        ],
        "shininess": 1,
        "transparency": 1
      },
      "technique": "technique0"
    },
    "material_SCcli": {
      "name": "SCcli",
      "extensions": {},
      "values": {
        "ambient": [
          0,
          0,
          0,
          1
        ],
        "diffuse": [
          0.4627,
          0,
          0,
          0.2
        ],
        "emission": [
          0,
          0,
          0,
          1
        ],
        "specular": [
          0.05,
          0.05,
          0.05,
          1
        ],
        "shininess": 100,
        "transparency": 1
      },
      "technique": "technique1"
    }
  },
  "meshes": {
    "mesh_junjian5": {
      "name": "junjian5",
      "primitives": [
        {
          "attributes": {
            "POSITION": "accessor_position",
            "NORMAL": "accessor_normal"
          },
          "indices": "accessor_index_0",
          "material": "material_SCcasco2",
          "mode": 4
        },
        {
          "attributes": {
            "POSITION": "accessor_position",
            "NORMAL": "accessor_normal"
          },
          "indices": "accessor_index_1",
          "material": "material_SCcasco",
          "mode": 4
        },
        {
          "attributes": {
            "POSITION": "accessor_position",
            "NORMAL": "accessor_normal"
          },
          "indices": "accessor_index_2",
          "material": "material_Sccasc",
          "mode": 4
        },
        {
          "attributes": {
            "POSITION": "accessor_position",
            "NORMAL": "accessor_normal"
          },
          "indices": "accessor_index_3",
          "material": "material_Default",
          "mode": 4
        },
        {
          "attributes": {
            "POSITION": "accessor_position",
            "NORMAL": "accessor_normal"
          },
          "indices": "accessor_index_4",
          "material": "material_SCtelc",
          "mode": 4
        },
        {
          "attributes": {
            "POSITION": "accessor_position",
            "NORMAL": "accessor_normal"
          },
          "indices": "accessor_index_5",
          "material": "material_scgrey",
          "mode": 4
        },
        {
          "attributes": {
            "POSITION": "accessor_position",
            "NORMAL": "accessor_normal"
          },
          "indices": "accessor_index_6",
          "material": "material_SCcubierta",
          "mode": 4
        },
        {
          "attributes": {
            "POSITION": "accessor_position",
            "NORMAL": "accessor_normal"
          },
          "indices": "accessor_index_7",
          "material": "material_SCbidone",
          "mode": 4
        },
        {
          "attributes": {
            "POSITION": "accessor_position",
            "NORMAL": "accessor_normal"
          },
          "indices": "accessor_index_8",
          "material": "material_sctimon",
          "mode": 4
        },
        {
          "attributes": {
            "POSITION": "accessor_position",
            "NORMAL": "accessor_normal"
          },
          "indices": "accessor_index_9",
          "material": "material_scluzd",
          "mode": 4
        },
        {
          "attributes": {
            "POSITION": "accessor_position",
            "NORMAL": "accessor_normal"
          },
          "indices": "accessor_index_10",
          "material": "material_SCluzd",
          "mode": 4
        },
        {
          "attributes": {
            "POSITION": "accessor_position",
            "NORMAL": "accessor_normal"
          },
          "indices": "accessor_index_11",
          "material": "material_SCbidone1",
          "mode": 4
        },
        {
          "attributes": {
            "POSITION": "accessor_position",
            "NORMAL": "accessor_normal"
          },
          "indices": "accessor_index_12",
          "material": "material_SCcli",
          "mode": 4
        }
      ]
    }
  },
  "nodes": {
    "rootNode": {
      "children": [],
      "meshes": [
        "mesh_junjian5"
      ],
      "matrix": [
        1,
        0,
        0,
        0,
        0,
        1,
        0,
        0,
        0,
        0,
        1,
        0,
        0,
        0,
        0,
        1
      ]
    }
  },
  "samplers": {},
  "scene": "scene_junjian5",
  "scenes": {
    "scene_junjian5": {
      "nodes": [
        "rootNode"
      ]
    }
  },
  "textures": {},
  "extensionsUsed": [],
  "animations": {},
  "cameras": {},
  "techniques": {
    "technique0": {
      "attributes": {
        "a_position": "position",
        "a_normal": "normal"
      },
      "parameters": {
        "modelViewMatrix": {
          "semantic": "MODELVIEW",
          "type": 35676
        },
        "projectionMatrix": {
          "semantic": "PROJECTION",
          "type": 35676
        },
        "normalMatrix": {
          "semantic": "MODELVIEWINVERSETRANSPOSE",
          "type": 35675
        },
        "ambient": {
          "type": 35666
        },
        "diffuse": {
          "type": 35666
        },
        "emission": {
          "type": 35666
        },
        "specular": {
          "type": 35666
        },
        "shininess": {
          "type": 5126
        },
        "transparency": {
          "type": 5126
        },
        "position": {
          "semantic": "POSITION",
          "type": 35665
        },
        "normal": {
          "semantic": "NORMAL",
          "type": 35665
        }
      },
      "program": "program0",
      "states": {
        "enable": [
          2884,
          2929
        ]
      },
      "uniforms": {
        "u_modelViewMatrix": "modelViewMatrix",
        "u_projectionMatrix": "projectionMatrix",
        "u_normalMatrix": "normalMatrix",
        "u_ambient": "ambient",
        "u_diffuse": "diffuse",
        "u_emission": "emission",
        "u_specular": "specular",
        "u_shininess": "shininess",
        "u_transparency": "transparency"
      }
    },
    "technique1": {
      "attributes": {
        "a_position": "position",
        "a_normal": "normal"
      },
      "parameters": {
        "modelViewMatrix": {
          "semantic": "MODELVIEW",
          "type": 35676
        },
        "projectionMatrix": {
          "semantic": "PROJECTION",
          "type": 35676
        },
        "normalMatrix": {
          "semantic": "MODELVIEWINVERSETRANSPOSE",
          "type": 35675
        },
        "ambient": {
          "type": 35666
        },
        "diffuse": {
          "type": 35666
        },
        "emission": {
          "type": 35666
        },
        "specular": {
          "type": 35666
        },
        "shininess": {
          "type": 5126
        },
        "transparency": {
          "type": 5126
        },
        "position": {
          "semantic": "POSITION",
          "type": 35665
        },
        "normal": {
          "semantic": "NORMAL",
          "type": 35665
        }
      },
      "program": "program1",
      "states": {
        "enable": [
          2929,
          3042
        ],
        "depthMask": false,
        "functions": {
          "blendEquationSeparate": [
            32774,
            32774
          ],
          "blendFuncSeparate": [
            1,
            771,
            1,
            771
          ]
        }
      },
      "uniforms": {
        "u_modelViewMatrix": "modelViewMatrix",
        "u_projectionMatrix": "projectionMatrix",
        "u_normalMatrix": "normalMatrix",
        "u_ambient": "ambient",
        "u_diffuse": "diffuse",
        "u_emission": "emission",
        "u_specular": "specular",
        "u_shininess": "shininess",
        "u_transparency": "transparency"
      }
    }
  },
  "programs": {
    "program0": {
      "attributes": [
        "a_position",
        "a_normal"
      ],
      "fragmentShader": "fragmentShader0",
      "vertexShader": "vertexShader0"
    },
    "program1": {
      "attributes": [
        "a_position",
        "a_normal"
      ],
      "fragmentShader": "fragmentShader1",
      "vertexShader": "vertexShader1"
    }
  },
  "shaders": {
    "vertexShader0": {
      "type": 35633,
      "uri": "data:text/plain;base64,"
    },
    "fragmentShader0": {
      "type": 35632,
      "uri": "data:text/plain;base64,"
    },
    "vertexShader1": {
      "type": 35633,
      "uri": "data:text/plain;base64,"
    },
    "fragmentShader1": {
      "type": 35632,
      "uri": "data:text/plain;base64,"
    }
  },
  "skins": {},
  "extensions": {}
}
