{
  "accessors": {
    "accessor_index_0": {
      "bufferView": "bufferView_1",
      "byteOffset": 0,
      "byteStride": 0,
      "componentType": 5123,
      "count": 20916,
      "type": "SCALAR",
      "min": [
        0
      ],
      "max": [
        39946
      ]
    },
    "accessor_index_1": {
      "bufferView": "bufferView_1",
      "byteOffset": 41832,
      "byteStride": 0,
      "componentType": 5123,
      "count": 864,
      "type": "SCALAR",
      "min": [
        504
      ],
      "max": [
        672
      ]
    },
    "accessor_index_2": {
      "bufferView": "bufferView_1",
      "byteOffset": 43560,
      "byteStride": 0,
      "componentType": 5123,
      "count": 864,
      "type": "SCALAR",
      "min": [
        673
      ],
      "max": [
        841
      ]
    },
    "accessor_index_3": {
      "bufferView": "bufferView_1",
      "byteOffset": 45288,
      "byteStride": 0,
      "componentType": 5123,
      "count": 22833,
      "type": "SCALAR",
      "min": [
        842
      ],
      "max": [
        36629
      ]
    },
    "accessor_index_4": {
      "bufferView": "bufferView_1",
      "byteOffset": 90954,
      "byteStride": 0,
      "componentType": 5123,
      "count": 27276,
      "type": "SCALAR",
      "min": [
        7716
      ],
      "max": [
        30545
      ]
    },
    "accessor_index_5": {
      "bufferView": "bufferView_1",
      "byteOffset": 145506,
      "byteStride": 0,
      "componentType": 5123,
      "count": 7506,
      "type": "SCALAR",
      "min": [
        22562
      ],
      "max": [
        24162
      ]
    },
    "accessor_index_6": {
      "bufferView": "bufferView_1",
      "byteOffset": 160518,
      "byteStride": 0,
      "componentType": 5123,
      "count": 1620,
      "type": "SCALAR",
      "min": [
        27771
      ],
      "max": [
        35947
      ]
    },
    "accessor_index_7": {
      "bufferView": "bufferView_1",
      "byteOffset": 163758,
      "byteStride": 0,
      "componentType": 5123,
      "count": 15162,
      "type": "SCALAR",
      "min": [
        30203
      ],
      "max": [
        34192
      ]
    },
    "accessor_index_8": {
      "bufferView": "bufferView_1",
      "byteOffset": 194082,
      "byteStride": 0,
      "componentType": 5123,
      "count": 267,
      "type": "SCALAR",
      "min": [
        36630
      ],
      "max": [
        36720
      ]
    },
    "accessor_position": {
      "bufferView": "bufferView_0",
      "byteOffset": 0,
      "byteStride": 0,
      "componentType": 5126,
      "count": 38062,
      "min": [
        -18455.44140625,
        -21463.884765625,
        -135506.484375
      ],
      "max": [
        16080.095703125,
        40793.359375,
        132771.140625
      ],
      "type": "VEC3"
    },
    "accessor_normal": {
      "bufferView": "bufferView_0",
      "byteOffset": 456744,
      "byteStride": 0,
      "componentType": 5126,
      "count": 38062,
      "type": "VEC3",
      "min": [
        -1,
        -1,
        -1
      ],
      "max": [
        1,
        1,
        1
      ]
    }
  },
  "asset": {
    "generator": "OBJ2GLTF",
    "premultipliedAlpha": true,
    "profile": {
      "api": "WebGL",
      "version": "1.0"
    },
    "version": "1.0"
  },
  "buffers": {
    "buffer_0": {
      "type": "arraybuffer",
      "byteLength": 1108104,
      "uri": "data:application/octet-stream;base64,"
    }
  },
  "bufferViews": {
    "bufferView_0": {
      "buffer": "buffer_0",
      "byteLength": 913488,
      "byteOffset": 0,
      "target": 34962
    },
    "bufferView_1": {
      "buffer": "buffer_0",
      "byteLength": 194616,
      "byteOffset": 913488,
      "target": 34963
    }
  },
  "images": {},
  "materials": {
    "material_NNegro": {
      "name": "NNegro",
      "extensions": {},
      "values": {
        "ambient": [
          0,
          0,
          0,
          1
        ],
        "diffuse": [
          0.0431,
          0.0431,
          0.0431,
          1
        ],
        "emission": [
          0,
          0,
          0,
          1
        ],
        "specular": [
          1,
          1,
          1,
          1
        ],
        "shininess": 100,
        "transparency": 1
      },
      "technique": "technique0"
    },
    "material_NBanUSA": {
      "name": "NBanUSA",
      "extensions": {},
      "values": {
        "ambient": [
          0,
          0,
          0,
          1
        ],
        "diffuse": [
          0.4039,
          0.4706,
          0.4824,
          1
        ],
        "emission": [
          0,
          0,
          0,
          1
        ],
        "specular": [
          1,
          1,
          1,
          1
        ],
        "shininess": 100,
        "transparency": 1
      },
      "technique": "technique0"
    },
    "material_NBanEEUU": {
      "name": "NBanEEUU",
      "extensions": {},
      "values": {
        "ambient": [
          0,
          0,
          0,
          1
        ],
        "diffuse": [
          0.4039,
          0.4706,
          0.4824,
          1
        ],
        "emission": [
          0,
          0,
          0,
          1
        ],
        "specular": [
          1,
          1,
          1,
          1
        ],
        "shininess": 100,
        "transparency": 1
      },
      "technique": "technique0"
    },
    "material_NGris": {
      "name": "NGris",
      "extensions": {},
      "values": {
        "ambient": [
          0,
          0,
          0,
          1
        ],
        "diffuse": [
          0.4039,
          0.4706,
          0.4824,
          1
        ],
        "emission": [
          0,
          0,
          0,
          1
        ],
        "specular": [
          1,
          1,
          1,
          1
        ],
        "shininess": 100,
        "transparency": 1
      },
      "technique": "technique0"
    },
    "material_NGris1": {
      "name": "NGris1",
      "extensions": {},
      "values": {
        "ambient": [
          0,
          0,
          0,
          1
        ],
        "diffuse": [
          0.1686,
          0.1843,
          0.1882,
          1
        ],
        "emission": [
          0,
          0,
          0,
          1
        ],
        "specular": [
          1,
          1,
          1,
          1
        ],
        "shininess": 100,
        "transparency": 1
      },
      "technique": "technique0"
    },
    "material_BCromados": {
      "name": "BCromados",
      "extensions": {},
      "values": {
        "ambient": [
          0,
          0,
          0,
          1
        ],
        "diffuse": [
          0.2,
          0.1412,
          0.0824,
          1
        ],
        "emission": [
          0,
          0,
          0,
          1
        ],
        "specular": [
          1,
          1,
          1,
          1
        ],
        "shininess": 100,
        "transparency": 1
      },
      "technique": "technique0"
    },
    "material_NCubMad": {
      "name": "NCubMad",
      "extensions": {},
      "values": {
        "ambient": [
          0,
          0,
          0,
          1
        ],
        "diffuse": [
          0.4549,
          0.4549,
          0.1333,
          1
        ],
        "emission": [
          0,
          0,
          0,
          1
        ],
        "specular": [
          1,
          1,
          1,
          1
        ],
        "shininess": 100,
        "transparency": 1
      },
      "technique": "technique0"
    },
    "material_NCasco": {
      "name": "NCasco",
      "extensions": {},
      "values": {
        "ambient": [
          0,
          0,
          0,
          1
        ],
        "diffuse": [
          0.1843,
          0.298,
          0.302,
          1
        ],
        "emission": [
          0,
          0,
          0,
          1
        ],
        "specular": [
          1,
          1,
          1,
          1
        ],
        "shininess": 100,
        "transparency": 1
      },
      "technique": "technique0"
    },
    "material_NCubHel": {
      "name": "NCubHel",
      "extensions": {},
      "values": {
        "ambient": [
          0,
          0,
          0,
          1
        ],
        "diffuse": [
          0.0471,
          0.1294,
          0.1569,
          0
        ],
        "emission": [
          0,
          0,
          0,
          1
        ],
        "specular": [
          0.34,
          0.34,
          0.34,
          1
        ],
        "shininess": 41,
        "transparency": 1
      },
      "technique": "technique1"
    }
  },
  "meshes": {
    "mesh_junjian6": {
      "name": "junjian6",
      "primitives": [
        {
          "attributes": {
            "POSITION": "accessor_position",
            "NORMAL": "accessor_normal"
          },
          "indices": "accessor_index_0",
          "material": "material_NNegro",
          "mode": 4
        },
        {
          "attributes": {
            "POSITION": "accessor_position",
            "NORMAL": "accessor_normal"
          },
          "indices": "accessor_index_1",
          "material": "material_NBanUSA",
          "mode": 4
        },
        {
          "attributes": {
            "POSITION": "accessor_position",
            "NORMAL": "accessor_normal"
          },
          "indices": "accessor_index_2",
          "material": "material_NBanEEUU",
          "mode": 4
        },
        {
          "attributes": {
            "POSITION": "accessor_position",
            "NORMAL": "accessor_normal"
          },
          "indices": "accessor_index_3",
          "material": "material_NGris",
          "mode": 4
        },
        {
          "attributes": {
            "POSITION": "accessor_position",
            "NORMAL": "accessor_normal"
          },
          "indices": "accessor_index_4",
          "material": "material_NGris1",
          "mode": 4
        },
        {
          "attributes": {
            "POSITION": "accessor_position",
            "NORMAL": "accessor_normal"
          },
          "indices": "accessor_index_5",
          "material": "material_BCromados",
          "mode": 4
        },
        {
          "attributes": {
            "POSITION": "accessor_position",
            "NORMAL": "accessor_normal"
          },
          "indices": "accessor_index_6",
          "material": "material_NCubMad",
          "mode": 4
        },
        {
          "attributes": {
            "POSITION": "accessor_position",
            "NORMAL": "accessor_normal"
          },
          "indices": "accessor_index_7",
          "material": "material_NCasco",
          "mode": 4
        },
        {
          "attributes": {
            "POSITION": "accessor_position",
            "NORMAL": "accessor_normal"
          },
          "indices": "accessor_index_8",
          "material": "material_NCubHel",
          "mode": 4
        }
      ]
    }
  },
  "nodes": {
    "rootNode": {
      "children": [],
      "meshes": [
        "mesh_junjian6"
      ],
      "matrix": [
        1,
        0,
        0,
        0,
        0,
        1,
        0,
        0,
        0,
        0,
        1,
        0,
        0,
        0,
        0,
        1
      ]
    }
  },
  "samplers": {},
  "scene": "scene_junjian6",
  "scenes": {
    "scene_junjian6": {
      "nodes": [
        "rootNode"
      ]
    }
  },
  "textures": {},
  "extensionsUsed": [],
  "animations": {},
  "cameras": {},
  "techniques": {
    "technique0": {
      "attributes": {
        "a_position": "position",
        "a_normal": "normal"
      },
      "parameters": {
        "modelViewMatrix": {
          "semantic": "MODELVIEW",
          "type": 35676
        },
        "projectionMatrix": {
          "semantic": "PROJECTION",
          "type": 35676
        },
        "normalMatrix": {
          "semantic": "MODELVIEWINVERSETRANSPOSE",
          "type": 35675
        },
        "ambient": {
          "type": 35666
        },
        "diffuse": {
          "type": 35666
        },
        "emission": {
          "type": 35666
        },
        "specular": {
          "type": 35666
        },
        "shininess": {
          "type": 5126
        },
        "transparency": {
          "type": 5126
        },
        "position": {
          "semantic": "POSITION",
          "type": 35665
        },
        "normal": {
          "semantic": "NORMAL",
          "type": 35665
        }
      },
      "program": "program0",
      "states": {
        "enable": [
          2884,
          2929
        ]
      },
      "uniforms": {
        "u_modelViewMatrix": "modelViewMatrix",
        "u_projectionMatrix": "projectionMatrix",
        "u_normalMatrix": "normalMatrix",
        "u_ambient": "ambient",
        "u_diffuse": "diffuse",
        "u_emission": "emission",
        "u_specular": "specular",
        "u_shininess": "shininess",
        "u_transparency": "transparency"
      }
    },
    "technique1": {
      "attributes": {
        "a_position": "position",
        "a_normal": "normal"
      },
      "parameters": {
        "modelViewMatrix": {
          "semantic": "MODELVIEW",
          "type": 35676
        },
        "projectionMatrix": {
          "semantic": "PROJECTION",
          "type": 35676
        },
        "normalMatrix": {
          "semantic": "MODELVIEWINVERSETRANSPOSE",
          "type": 35675
        },
        "ambient": {
          "type": 35666
        },
        "diffuse": {
          "type": 35666
        },
        "emission": {
          "type": 35666
        },
        "specular": {
          "type": 35666
        },
        "shininess": {
          "type": 5126
        },
        "transparency": {
          "type": 5126
        },
        "position": {
          "semantic": "POSITION",
          "type": 35665
        },
        "normal": {
          "semantic": "NORMAL",
          "type": 35665
        }
      },
      "program": "program1",
      "states": {
        "enable": [
          2929,
          3042
        ],
        "depthMask": false,
        "functions": {
          "blendEquationSeparate": [
            32774,
            32774
          ],
          "blendFuncSeparate": [
            1,
            771,
            1,
            771
          ]
        }
      },
      "uniforms": {
        "u_modelViewMatrix": "modelViewMatrix",
        "u_projectionMatrix": "projectionMatrix",
        "u_normalMatrix": "normalMatrix",
        "u_ambient": "ambient",
        "u_diffuse": "diffuse",
        "u_emission": "emission",
        "u_specular": "specular",
        "u_shininess": "shininess",
        "u_transparency": "transparency"
      }
    }
  },
  "programs": {
    "program0": {
      "attributes": [
        "a_position",
        "a_normal"
      ],
      "fragmentShader": "fragmentShader0",
      "vertexShader": "vertexShader0"
    },
    "program1": {
      "attributes": [
        "a_position",
        "a_normal"
      ],
      "fragmentShader": "fragmentShader1",
      "vertexShader": "vertexShader1"
    }
  },
  "shaders": {
    "vertexShader0": {
      "type": 35633,
      "uri": "data:text/plain;base64,"
    },
    "fragmentShader0": {
      "type": 35632,
      "uri": "data:text/plain;base64,"
    },
    "vertexShader1": {
      "type": 35633,
      "uri": "data:text/plain;base64,"
    },
    "fragmentShader1": {
      "type": 35632,
      "uri": "data:text/plain;base64,"
    }
  },
  "skins": {},
  "extensions": {}
}
