{
  "accessors": {
    "accessor_index_0": {
      "bufferView": "bufferView_1",
      "byteOffset": 0,
      "byteStride": 0,
      "componentType": 5123,
      "count": 660,
      "type": "SCALAR",
      "min": [
        0
      ],
      "max": [
        157
      ]
    },
    "accessor_index_1": {
      "bufferView": "bufferView_1",
      "byteOffset": 1320,
      "byteStride": 0,
      "componentType": 5123,
      "count": 2028,
      "type": "SCALAR",
      "min": [
        158
      ],
      "max": [
        634
      ]
    },
    "accessor_index_2": {
      "bufferView": "bufferView_1",
      "byteOffset": 5376,
      "byteStride": 0,
      "componentType": 5123,
      "count": 135300,
      "type": "SCALAR",
      "min": [
        635
      ],
      "max": [
        30945
      ]
    },
    "accessor_index_3": {
      "bufferView": "bufferView_1",
      "byteOffset": 275976,
      "byteStride": 0,
      "componentType": 5123,
      "count": 36,
      "type": "SCALAR",
      "min": [
        21697
      ],
      "max": [
        21716
      ]
    },
    "accessor_index_4": {
      "bufferView": "bufferView_1",
      "byteOffset": 276048,
      "byteStride": 0,
      "componentType": 5123,
      "count": 432,
      "type": "SCALAR",
      "min": [
        23434
      ],
      "max": [
        23535
      ]
    },
    "accessor_index_5": {
      "bufferView": "bufferView_1",
      "byteOffset": 276912,
      "byteStride": 0,
      "componentType": 5123,
      "count": 4488,
      "type": "SCALAR",
      "min": [
        25264
      ],
      "max": [
        31090
      ]
    },
    "accessor_position": {
      "bufferView": "bufferView_0",
      "byteOffset": 0,
      "byteStride": 0,
      "componentType": 5126,
      "count": 28159,
      "min": [
        -869815.875,
        0.005900000222027302,
        -570838.75
      ],
      "max": [
        869815.875,
        462673.59375,
        570838.75
      ],
      "type": "VEC3"
    },
    "accessor_normal": {
      "bufferView": "bufferView_0",
      "byteOffset": 337908,
      "byteStride": 0,
      "componentType": 5126,
      "count": 28159,
      "type": "VEC3",
      "min": [
        -1,
        -1,
        -1
      ],
      "max": [
        1,
        1,
        1
      ]
    }
  },
  "asset": {
    "generator": "OBJ2GLTF",
    "premultipliedAlpha": true,
    "profile": {
      "api": "WebGL",
      "version": "1.0"
    },
    "version": "1.0"
  },
  "buffers": {
    "buffer_0": {
      "type": "arraybuffer",
      "byteLength": 961704,
      "uri": "data:application/octet-stream;base64,"
    }
  },
  "bufferViews": {
    "bufferView_0": {
      "buffer": "buffer_0",
      "byteLength": 675816,
      "byteOffset": 0,
      "target": 34962
    },
    "bufferView_1": {
      "buffer": "buffer_0",
      "byteLength": 285888,
      "byteOffset": 675816,
      "target": 34963
    }
  },
  "images": {},
  "materials": {
    "material_AM84_016_MIG29_Engine": {
      "name": "AM84_016_MIG29_Engine",
      "extensions": {},
      "values": {
        "ambient": [
          0.1176,
          0.1176,
          0.1176,
          1
        ],
        "diffuse": [
          0.1725,
          0.1725,
          0.1725,
          1
        ],
        "emission": [
          0,
          0,
          0,
          1
        ],
        "specular": [
          0.792,
          0.792,
          0.792,
          1
        ],
        "shininess": 19,
        "transparency": 1
      },
      "technique": "technique0"
    },
    "material_wire_229154215": {
      "name": "wire_229154215",
      "extensions": {},
      "values": {
        "ambient": [
          0.898,
          0.6039,
          0.8431,
          1
        ],
        "diffuse": [
          0.898,
          0.6039,
          0.8431,
          1
        ],
        "emission": [
          0,
          0,
          0,
          1
        ],
        "specular": [
          0.35,
          0.35,
          0.35,
          1
        ],
        "shininess": 32,
        "transparency": 1
      },
      "technique": "technique0"
    },
    "material_wire_088144225": {
      "name": "wire_088144225",
      "extensions": {},
      "values": {
        "ambient": [
          0.3451,
          0.5647,
          0.8824,
          1
        ],
        "diffuse": [
          0.3451,
          0.5647,
          0.8824,
          1
        ],
        "emission": [
          0,
          0,
          0,
          1
        ],
        "specular": [
          0.35,
          0.35,
          0.35,
          1
        ],
        "shininess": 32,
        "transparency": 1
      },
      "technique": "technique0"
    },
    "material_AM84_016_11_Material": {
      "name": "AM84_016_11_Material",
      "extensions": {},
      "values": {
        "ambient": [
          0.1176,
          0.1176,
          0.1176,
          1
        ],
        "diffuse": [
          0.588,
          0.588,
          0.588,
          1
        ],
        "emission": [
          0,
          0,
          0,
          1
        ],
        "specular": [
          0.36,
          0.36,
          0.36,
          1
        ],
        "shininess": 20,
        "transparency": 1
      },
      "technique": "technique0"
    },
    "material_AM84_016_": {
      "name": "AM84_016_",
      "extensions": {},
      "values": {
        "ambient": [
          0.1176,
          0.1176,
          0.1176,
          1
        ],
        "diffuse": [
          0.0784,
          0.0784,
          0.0784,
          1
        ],
        "emission": [
          0,
          0,
          0,
          1
        ],
        "specular": [
          0.324,
          0.324,
          0.324,
          1
        ],
        "shininess": 10,
        "transparency": 1
      },
      "technique": "technique0"
    },
    "material_AM84_016_MIG29_rim": {
      "name": "AM84_016_MIG29_rim",
      "extensions": {},
      "values": {
        "ambient": [
          0.1176,
          0.1176,
          0.1176,
          1
        ],
        "diffuse": [
          0.7882,
          0.7882,
          0.7882,
          0
        ],
        "emission": [
          0,
          0,
          0,
          1
        ],
        "specular": [
          0.36,
          0.36,
          0.36,
          1
        ],
        "shininess": 20,
        "transparency": 1
      },
      "technique": "technique1"
    }
  },
  "meshes": {
    "mesh_zhandouji1": {
      "name": "zhandouji1",
      "primitives": [
        {
          "attributes": {
            "POSITION": "accessor_position",
            "NORMAL": "accessor_normal"
          },
          "indices": "accessor_index_0",
          "material": "material_AM84_016_MIG29_Engine",
          "mode": 4
        },
        {
          "attributes": {
            "POSITION": "accessor_position",
            "NORMAL": "accessor_normal"
          },
          "indices": "accessor_index_1",
          "material": "material_wire_229154215",
          "mode": 4
        },
        {
          "attributes": {
            "POSITION": "accessor_position",
            "NORMAL": "accessor_normal"
          },
          "indices": "accessor_index_2",
          "material": "material_wire_088144225",
          "mode": 4
        },
        {
          "attributes": {
            "POSITION": "accessor_position",
            "NORMAL": "accessor_normal"
          },
          "indices": "accessor_index_3",
          "material": "material_AM84_016_11_Material",
          "mode": 4
        },
        {
          "attributes": {
            "POSITION": "accessor_position",
            "NORMAL": "accessor_normal"
          },
          "indices": "accessor_index_4",
          "material": "material_AM84_016_",
          "mode": 4
        },
        {
          "attributes": {
            "POSITION": "accessor_position",
            "NORMAL": "accessor_normal"
          },
          "indices": "accessor_index_5",
          "material": "material_AM84_016_MIG29_rim",
          "mode": 4
        }
      ]
    }
  },
  "nodes": {
    "rootNode": {
      "children": [],
      "meshes": [
        "mesh_zhandouji1"
      ],
      "matrix": [
        1,
        0,
        0,
        0,
        0,
        1,
        0,
        0,
        0,
        0,
        1,
        0,
        0,
        0,
        0,
        1
      ]
    }
  },
  "samplers": {},
  "scene": "scene_zhandouji1",
  "scenes": {
    "scene_zhandouji1": {
      "nodes": [
        "rootNode"
      ]
    }
  },
  "textures": {},
  "extensionsUsed": [],
  "animations": {},
  "cameras": {},
  "techniques": {
    "technique0": {
      "attributes": {
        "a_position": "position",
        "a_normal": "normal"
      },
      "parameters": {
        "modelViewMatrix": {
          "semantic": "MODELVIEW",
          "type": 35676
        },
        "projectionMatrix": {
          "semantic": "PROJECTION",
          "type": 35676
        },
        "normalMatrix": {
          "semantic": "MODELVIEWINVERSETRANSPOSE",
          "type": 35675
        },
        "ambient": {
          "type": 35666
        },
        "diffuse": {
          "type": 35666
        },
        "emission": {
          "type": 35666
        },
        "specular": {
          "type": 35666
        },
        "shininess": {
          "type": 5126
        },
        "transparency": {
          "type": 5126
        },
        "position": {
          "semantic": "POSITION",
          "type": 35665
        },
        "normal": {
          "semantic": "NORMAL",
          "type": 35665
        }
      },
      "program": "program0",
      "states": {
        "enable": [
          2884,
          2929
        ]
      },
      "uniforms": {
        "u_modelViewMatrix": "modelViewMatrix",
        "u_projectionMatrix": "projectionMatrix",
        "u_normalMatrix": "normalMatrix",
        "u_ambient": "ambient",
        "u_diffuse": "diffuse",
        "u_emission": "emission",
        "u_specular": "specular",
        "u_shininess": "shininess",
        "u_transparency": "transparency"
      }
    },
    "technique1": {
      "attributes": {
        "a_position": "position",
        "a_normal": "normal"
      },
      "parameters": {
        "modelViewMatrix": {
          "semantic": "MODELVIEW",
          "type": 35676
        },
        "projectionMatrix": {
          "semantic": "PROJECTION",
          "type": 35676
        },
        "normalMatrix": {
          "semantic": "MODELVIEWINVERSETRANSPOSE",
          "type": 35675
        },
        "ambient": {
          "type": 35666
        },
        "diffuse": {
          "type": 35666
        },
        "emission": {
          "type": 35666
        },
        "specular": {
          "type": 35666
        },
        "shininess": {
          "type": 5126
        },
        "transparency": {
          "type": 5126
        },
        "position": {
          "semantic": "POSITION",
          "type": 35665
        },
        "normal": {
          "semantic": "NORMAL",
          "type": 35665
        }
      },
      "program": "program1",
      "states": {
        "enable": [
          2929,
          3042
        ],
        "depthMask": false,
        "functions": {
          "blendEquationSeparate": [
            32774,
            32774
          ],
          "blendFuncSeparate": [
            1,
            771,
            1,
            771
          ]
        }
      },
      "uniforms": {
        "u_modelViewMatrix": "modelViewMatrix",
        "u_projectionMatrix": "projectionMatrix",
        "u_normalMatrix": "normalMatrix",
        "u_ambient": "ambient",
        "u_diffuse": "diffuse",
        "u_emission": "emission",
        "u_specular": "specular",
        "u_shininess": "shininess",
        "u_transparency": "transparency"
      }
    }
  },
  "programs": {
    "program0": {
      "attributes": [
        "a_position",
        "a_normal"
      ],
      "fragmentShader": "fragmentShader0",
      "vertexShader": "vertexShader0"
    },
    "program1": {
      "attributes": [
        "a_position",
        "a_normal"
      ],
      "fragmentShader": "fragmentShader1",
      "vertexShader": "vertexShader1"
    }
  },
  "shaders": {
    "vertexShader0": {
      "type": 35633,
      "uri": "data:text/plain;base64,"
    },
    "fragmentShader0": {
      "type": 35632,
      "uri": "data:text/plain;base64,"
    },
    "vertexShader1": {
      "type": 35633,
      "uri": "data:text/plain;base64,"
    },
    "fragmentShader1": {
      "type": 35632,
      "uri": "data:text/plain;base64,"
    }
  },
  "skins": {},
  "extensions": {}
}
